<svg width="32" height="32" viewBox="0 0 32 32" fill="none" xmlns="http://www.w3.org/2000/svg">
<rect x="0.5" y="0.5" width="31" height="31" rx="4.5" stroke="black"/>
<path d="M14 16H18" stroke="#0052CC" stroke-width="2" stroke-linecap="round" stroke-linejoin="round"/>
<path d="M14 12H18" stroke="#0052CC" stroke-width="2" stroke-linecap="round" stroke-linejoin="round"/>
<path d="M18 25V22C18 21.4696 17.7893 20.9609 17.4142 20.5858C17.0391 20.2107 16.5304 20 16 20C15.4696 20 14.9609 20.2107 14.5858 20.5858C14.2107 20.9609 14 21.4696 14 22V25" stroke="#0052CC" stroke-width="2" stroke-linecap="round" stroke-linejoin="round"/>
<path d="M10 14H8C7.46957 14 6.96086 14.2107 6.58579 14.5858C6.21071 14.9609 6 15.4696 6 16V23C6 23.5304 6.21071 24.0391 6.58579 24.4142C6.96086 24.7893 7.46957 25 8 25H24C24.5304 25 25.0391 24.7893 25.4142 24.4142C25.7893 24.0391 26 23.5304 26 23V13C26 12.4696 25.7893 11.9609 25.4142 11.5858C25.0391 11.2107 24.5304 11 24 11H22" stroke="#0052CC" stroke-width="2" stroke-linecap="round" stroke-linejoin="round"/>
<path d="M10 25V9C10 8.46957 10.2107 7.96086 10.5858 7.58579C10.9609 7.21071 11.4696 7 12 7H20C20.5304 7 21.0391 7.21071 21.4142 7.58579C21.7893 7.96086 22 8.46957 22 9V25" stroke="#0052CC" stroke-width="2" stroke-linecap="round" stroke-linejoin="round"/>
</svg>
