<svg width="32" height="32" viewBox="0 0 32 32" fill="none" xmlns="http://www.w3.org/2000/svg">
<rect x="0.5" y="0.5" width="31" height="31" rx="4.5" stroke="black"/>
<path d="M14 24L12.75 21.5L10 22" stroke="#04A9F4" stroke-width="2" stroke-linecap="round" stroke-linejoin="round"/>
<path d="M14 8L12.75 10.5L10 10" stroke="#04A9F4" stroke-width="2" stroke-linecap="round" stroke-linejoin="round"/>
<path d="M18 24L19.25 21.5L22 22" stroke="#04A9F4" stroke-width="2" stroke-linecap="round" stroke-linejoin="round"/>
<path d="M18 8L19.25 10.5L22 10" stroke="#04A9F4" stroke-width="2" stroke-linecap="round" stroke-linejoin="round"/>
<path d="M21 25L18 19H14" stroke="#04A9F4" stroke-width="2" stroke-linecap="round" stroke-linejoin="round"/>
<path d="M21 7L18 13L19.5 16" stroke="#04A9F4" stroke-width="2" stroke-linecap="round" stroke-linejoin="round"/>
<path d="M6 16H12.5L14 13" stroke="#04A9F4" stroke-width="2" stroke-linecap="round" stroke-linejoin="round"/>
<path d="M24 14L22.5 16L24 18" stroke="#04A9F4" stroke-width="2" stroke-linecap="round" stroke-linejoin="round"/>
<path d="M26 16H19.5L18 19" stroke="#04A9F4" stroke-width="2" stroke-linecap="round" stroke-linejoin="round"/>
<path d="M8 14L9.5 16L8 18" stroke="#04A9F4" stroke-width="2" stroke-linecap="round" stroke-linejoin="round"/>
<path d="M11 25L14 19L12.5 16" stroke="#04A9F4" stroke-width="2" stroke-linecap="round" stroke-linejoin="round"/>
<path d="M11 7L14 13H18" stroke="#04A9F4" stroke-width="2" stroke-linecap="round" stroke-linejoin="round"/>
</svg>
