<svg width="32" height="32" viewBox="0 0 32 32" fill="none" xmlns="http://www.w3.org/2000/svg">
<rect x="0.5" y="0.5" width="31" height="31" rx="4.5" stroke="black"/>
<path d="M15 12C17 9 13 9 15 6" stroke="#FF5E2C" stroke-width="2" stroke-linecap="round" stroke-linejoin="round"/>
<path d="M19.5 12C21.5 9 17.5 9 19.5 6" stroke="#FF5E2C" stroke-width="2" stroke-linecap="round" stroke-linejoin="round"/>
<path d="M10 14H10.01" stroke="#FF5E2C" stroke-width="2" stroke-linecap="round" stroke-linejoin="round"/>
<path d="M10 18H10.01" stroke="#FF5E2C" stroke-width="2" stroke-linecap="round" stroke-linejoin="round"/>
<path d="M14 20V16" stroke="#FF5E2C" stroke-width="2" stroke-linecap="round" stroke-linejoin="round"/>
<path d="M18 20V16" stroke="#FF5E2C" stroke-width="2" stroke-linecap="round" stroke-linejoin="round"/>
<path d="M22 20V16" stroke="#FF5E2C" stroke-width="2" stroke-linecap="round" stroke-linejoin="round"/>
<path d="M24 10C24.5304 10 25.0391 10.2107 25.4142 10.5858C25.7893 10.9609 26 11.4696 26 12V22C26 22.5304 25.7893 23.0391 25.4142 23.4142C25.0391 23.7893 24.5304 24 24 24H8C7.46957 24 6.96086 23.7893 6.58579 23.4142C6.21071 23.0391 6 22.5304 6 22V12C6 11.4696 6.21071 10.9609 6.58579 10.5858C6.96086 10.2107 7.46957 10 8 10H11" stroke="#FF5E2C" stroke-width="2" stroke-linecap="round" stroke-linejoin="round"/>
<path d="M9 24V26" stroke="#FF5E2C" stroke-width="2" stroke-linecap="round" stroke-linejoin="round"/>
<path d="M23 24V26" stroke="#FF5E2C" stroke-width="2" stroke-linecap="round" stroke-linejoin="round"/>
</svg>
