<svg width="32" height="32" viewBox="0 0 32 32" fill="none" xmlns="http://www.w3.org/2000/svg">
<rect x="0.5" y="0.5" width="31" height="31" rx="4.5" stroke="black"/>
<path d="M16 7C16.6667 9.66667 18 11.8333 20 13.5C22 15.1667 23 17 23 19C23 20.8565 22.2625 22.637 20.9497 23.9497C19.637 25.2625 17.8565 26 16 26C14.1435 26 12.363 25.2625 11.0503 23.9497C9.7375 22.637 9 20.8565 9 19C9 17.9181 9.35089 16.8655 10 16C10 16.663 10.2634 17.2989 10.7322 17.7678C11.2011 18.2366 11.837 18.5 12.5 18.5C13.163 18.5 13.7989 18.2366 14.2678 17.7678C14.7366 17.2989 15 16.663 15 16C15 14 13.5 13 13.5 11C13.5 9.66667 14.3333 8.33333 16 7Z" fill="#F97D41" stroke="#F97D41" stroke-linecap="round" stroke-linejoin="round"/>
</svg>
