<svg width="115" height="61" viewBox="0 0 115 61" fill="none" xmlns="http://www.w3.org/2000/svg">
<path d="M0.582397 27.7058L5.58234 27.7059L9.58243 46.2064L13.0824 27.7059L18.0824 27.7059L12.0824 59.7063L7.08243 59.7063L0.582397 27.7058Z" fill="#F97D41"/>
<path d="M26.5 28H22V60H34V55H27L26.5 28Z" fill="#F97D41"/>
<path d="M37 60H42V55H37V60Z" fill="#F97D41"/>
<path fill-rule="evenodd" clip-rule="evenodd" d="M54.2504 28.1668C53.7516 28.0559 53.2422 28 52.7313 28H45V60H50V46H53L53.1844 46.1229C54.0371 46.6914 54.6759 47.5278 55 48.5V60H60V49L59.9 48.3C59.6404 46.4825 58.7982 44.7982 57.5 43.5L57.7506 43.2076C59.5084 41.1569 60.362 38.4825 60.1175 35.7927L60.1014 35.6152C60.0341 34.8748 59.8714 34.1463 59.6173 33.4476L59.3126 32.6098C58.495 30.3613 56.586 28.6858 54.2504 28.1668ZM50 32V42H52.9295C52.9763 42 53.023 41.9943 53.0684 41.9829C54.2296 41.6926 55.0877 40.7107 55.2199 39.5211L55.4274 37.6531C55.4756 37.2192 55.4726 36.7811 55.4185 36.3479L55.2549 35.0389C55.0956 33.7651 54.3103 32.6552 53.1621 32.0811C53.0555 32.0278 52.9379 32 52.8187 32H50Z" fill="#F97D41"/>
<path d="M70 28H65V52.2984C65 54.3709 65.7053 56.3817 67 58C67.9443 59.259 69.4262 60 71 60H80V28H75V56H72.5261C72.1801 56 71.8389 55.9194 71.5294 55.7647C71.1825 55.5912 70.8868 55.3302 70.6717 55.0075L70.5327 54.7991C70.1854 54.278 70 53.6658 70 53.0396V28Z" fill="#F97D41"/>
<path d="M71.9761 7.27921L71 7.00033C75.26 6.67264 79.5561 7.35704 83.5 9.00033L88.5 11.5L90.2953 9.44828C91.4293 8.15224 92.6815 6.96455 94.0356 5.90058L94.1103 5.84189C97.329 3.31293 101.074 1.539 105.07 0.651028C107.018 0.218309 109.006 0 111.001 0H115L108.769 1.55786C104.972 2.50703 101.439 4.30128 98.4322 6.80675C97.4786 7.60145 96.5832 8.46344 95.7528 9.3861L95.0811 10.1324C93.3644 12.0399 91.8352 14.1083 90.5148 16.3088L89.5 18C87.8448 15.6828 85.8173 13.6554 83.5 12.0003C79.8446 10.0064 75.9797 8.42311 71.9761 7.27921Z" fill="#0E9AF0"/>
</svg>
